# Blender 3.5.1
# www.blender.org
mtllib house1.mtl
o Cube
v 6.868350 11.552148 -12.153241
v 6.868350 -11.538999 -12.153241
v 6.868350 11.552148 12.153241
v 6.868350 -11.538999 12.153241
v -6.868350 11.552148 -12.153241
v -6.868350 -11.552148 -12.153241
v -6.868350 11.552148 12.153241
v -6.868350 -11.552148 12.153241
v 6.670077 11.218666 -11.802407
v 6.670026 -11.205620 -11.802389
v 6.670077 11.218666 11.802407
v 6.670026 -11.205620 11.802389
v -6.670077 11.218666 -11.802407
v -6.670129 -11.218562 -11.802425
v -6.670077 11.218666 11.802407
v -6.670129 -11.218562 11.802425
v 6.868350 4.855867 8.052062
v 6.670063 4.855867 8.052062
v 6.670054 1.280820 8.052062
v 6.868350 1.280820 8.052062
v 6.670063 4.855867 10.467157
v 6.868350 4.855867 10.467157
v 6.868350 1.280820 10.467157
v 6.670054 1.280820 10.467157
v 6.868350 4.855867 -0.400768
v 6.670063 4.855867 -0.400768
v 6.670054 1.280820 -0.400768
v 6.868350 1.280820 -0.400768
v 6.670063 4.855867 2.014325
v 6.868350 4.855867 2.014325
v 6.670054 1.280820 2.014325
v 6.868350 1.280820 2.014325
v 6.868350 4.855867 -8.853601
v 6.670063 4.855867 -8.853601
v 6.670054 1.280820 -8.853601
v 6.868350 1.280820 -8.853601
v 6.670063 4.855867 -6.438505
v 6.868350 4.855867 -6.438505
v 6.868350 1.280820 -6.438505
v 6.670054 1.280820 -6.438505
v 6.670054 1.280820 10.467157
v 6.670054 1.280820 8.052062
v 6.670063 4.855867 10.467157
v 6.670054 1.280820 2.014325
v 6.670063 4.855867 8.052062
v 6.670063 4.855867 2.014325
v 6.670054 1.280820 -0.400768
v 6.670063 4.855867 -0.400768
v 6.670063 4.855867 -6.438505
v 6.670054 1.280820 -8.853601
v 6.670063 4.855867 -8.853601
v 6.670054 1.280820 -6.438505
vn -0.0000 1.0000 -0.0000
vn -0.0000 -0.0000 1.0000
vn -1.0000 -0.0000 -0.0000
vn 0.0010 -1.0000 -0.0000
vn 1.0000 -0.0000 -0.0000
vn -0.0000 -0.0000 -1.0000
vn -0.0000 -1.0000 -0.0000
vn -0.0010 1.0000 -0.0000
vt -5.066026 6.066027
vt -1.353859 -5.066026
vt 2.358309 -1.358308
vt -1.358308 2.353858
vt -1.353859 -1.358308
vt 2.358309 -5.066026
vt -1.358309 6.066027
vt -5.066026 -5.066026
vt 2.353858 -5.066025
vt -5.066026 -1.358308
vt -5.066026 2.353858
vt 2.353858 -1.358308
vt -5.066026 2.358309
vt -1.353859 2.353858
vt 6.066027 -1.358308
vt -1.353859 -1.353859
vt -1.358309 -1.353859
vt 6.066027 -5.066025
vt -1.358309 2.358309
vt -1.358308 -5.066025
vt 2.353858 2.353858
vt -1.358309 -1.358308
vt 2.353858 -1.353859
vt -5.066026 -1.353858
vt -5.066026 6.066027
vt -1.353859 -5.066026
vt 2.358309 -1.358308
vt -1.358308 2.353858
vt -1.353859 -1.358308
vt 2.358309 -5.066026
vt -1.358309 6.066027
vt -5.066026 -5.066026
vt 2.353858 -5.066025
vt -5.066026 -1.358308
vt -5.066026 2.353858
vt 2.353858 -1.358308
vt -5.066026 2.358309
vt -1.353859 2.353858
vt 6.066027 -1.358308
vt -1.353859 -1.353859
vt -1.358309 -1.353859
vt 6.066027 -5.066025
vt -1.358309 2.358309
vt -1.358308 -5.066025
vt 2.353858 2.353858
vt -1.358309 -1.358308
vt 2.353858 -1.353859
vt -5.066026 -1.353858
vt 1.728263 -3.990811
vt 0.625000 0.362091
vt 0.762910 0.500000
vt 0.375000 0.362090
vt 0.237090 0.500000
vt 1.728264 -3.416770
vt 0.625000 0.887909
vt 0.762910 0.750000
vt 2.096663 -3.990811
vt 2.096663 -3.416771
vt 0.375000 0.887910
vt 0.237090 0.750000
vt 0.438866 -3.990812
vt 0.625000 0.362091
vt 0.762910 0.500000
vt 0.375000 0.362090
vt 0.237090 0.500000
vt 0.438867 -3.416771
vt 0.625000 0.887909
vt 0.762910 0.750000
vt 0.807266 -3.990812
vt 0.375000 0.887910
vt 0.237090 0.750000
vt 0.807265 -3.416771
vt -0.850531 -3.990812
vt 0.625000 0.362091
vt 0.762910 0.500000
vt 0.375000 0.362090
vt 0.237090 0.500000
vt -0.850531 -3.416771
vt 0.625000 0.887909
vt 0.762910 0.750000
vt -0.482132 -3.990812
vt -0.482132 -3.416771
vt 0.375000 0.887910
vt 0.237090 0.750000
vt 2.144126 -3.422864
vt 0.375000 0.887910
vt 0.237090 0.750000
vt 1.764775 -3.422863
vt 0.375000 0.362090
vt 0.237090 0.500000
vt 2.144125 -4.013976
vt 0.625000 0.887909
vt 0.762910 0.750000
vt 0.816399 -3.422864
vt 0.375000 0.887910
vt 0.237090 0.750000
vt 1.764775 -4.013976
vt 0.625000 0.362091
vt 0.762910 0.500000
vt 0.816399 -4.013976
vt 0.625000 0.887909
vt 0.762910 0.750000
vt 0.437049 -3.422864
vt 0.375000 0.362090
vt 0.237090 0.500000
vt 0.437049 -4.013976
vt 0.625000 0.362091
vt 0.762910 0.500000
vt -0.511326 -4.013976
vt 0.625000 0.887909
vt 0.762910 0.750000
vt -0.890677 -3.422864
vt 0.375000 0.362090
vt 0.237090 0.500000
vt -0.890677 -4.013977
vt 0.625000 0.362091
vt 0.762910 0.500000
vt -0.511327 -3.422864
vt 0.375000 0.887910
vt 0.237090 0.750000
s 0
usemtl Material
f 1/1/1 5/13/1 7/19/1 3/7/1
f 4/10/2 3/8/2 7/20/2 8/22/2
f 8/23/3 7/21/3 5/14/3 6/16/3
f 6/17/4 2/4/4 4/11/4 8/24/4
f 33/73/5 1/2/5 3/9/5 22/57/5 17/49/5 20/54/5 32/72/5 30/69/5 25/61/5 38/81/5
f 25/61/5 28/66/5 32/72/5 20/54/5 23/58/5 22/57/5 3/9/5 4/12/5 2/5/5 1/2/5 33/73/5 36/78/5 39/82/5 38/81/5
f 6/18/6 5/15/6 1/3/6 2/6/6
f 9/25/7 11/31/7 15/43/7 13/37/7
f 12/34/6 16/46/6 15/44/6 11/32/6
f 16/47/5 14/40/5 13/38/5 15/45/5
f 14/41/8 16/48/8 12/35/8 10/28/8
f 44/94/3 42/88/3 45/97/3 43/91/3 11/33/3 9/26/3 51/115/3 49/109/3 48/106/3 46/100/3
f 9/26/3 10/29/3 12/36/3 11/33/3 43/91/3 41/85/3 42/88/3 44/94/3 47/103/3 48/106/3 49/109/3 52/118/3 50/112/3 51/115/3
f 14/42/2 10/30/2 9/27/2 13/39/2
f 19/52/1 18/50/1 45/98/1 42/89/1
f 21/55/1 24/59/1 41/86/1 43/92/1
f 24/60/1 19/53/1 42/90/1 41/87/1
f 18/51/1 21/56/1 43/93/1 45/99/1
f 27/64/1 26/62/1 48/107/1 47/104/1
f 46/101/1 29/67/1 31/70/1 44/95/1
f 44/96/1 31/71/1 27/65/1 47/105/1
f 26/63/1 29/68/1 46/102/1 48/108/1
f 35/76/1 34/74/1 51/116/1 50/113/1
f 37/79/1 40/83/1 52/119/1 49/110/1
f 40/84/1 35/77/1 50/114/1 52/120/1
f 34/75/1 37/80/1 49/111/1 51/117/1
o Cube.001
v 5.128785 -11.525850 1.504877
v 5.128785 -6.419573 1.504877
v 5.128785 -11.525850 -1.504877
v 5.128785 -6.419573 -1.504877
v 6.931310 -11.538999 1.504877
v 6.931310 -6.419573 1.504877
v 6.931310 -11.538999 -1.504877
v 6.931310 -6.419573 -1.504877
vn -1.0000 -0.0000 -0.0000
vn -0.0000 -0.0000 -1.0000
vn 1.0000 -0.0000 -0.0000
vn -0.0000 -0.0000 1.0000
vn -0.0073 -1.0000 -0.0000
vn -0.0000 1.0000 -0.0000
vt 0.375000 0.000000
vt 0.375000 1.000000
vt 0.125000 0.750000
vt 0.625000 0.000000
vt 0.625000 1.000000
vt 0.875000 0.750000
vt 0.375000 0.250000
vt 0.125000 0.500000
vt 0.625000 0.250000
vt 0.875000 0.500000
vt 0.375000 0.750000
vt 0.625000 0.750000
vt 0.375000 0.500000
vt 0.625000 0.500000
s 0
f 53/121/9 54/124/9 56/129/9 55/127/9
f 55/127/10 56/129/10 60/134/10 59/133/10
f 59/133/11 60/134/11 58/132/11 57/131/11
f 57/131/12 58/132/12 54/125/12 53/122/12
f 55/128/13 59/133/13 57/131/13 53/123/13
f 60/134/14 56/130/14 54/126/14 58/132/14
o Cube.002
v 6.960214 -9.091250 1.341443
v 7.044371 -8.854173 1.341443
v 6.960214 -9.091250 0.717511
v 7.044371 -8.854173 0.717511
v 7.197292 -9.091250 1.341443
v 7.197292 -8.854173 1.341443
v 7.197292 -9.091250 0.717511
v 7.197292 -8.854173 0.717511
v 7.044371 -9.091250 1.259571
v 7.044371 -9.091250 0.799383
v 7.044371 -8.854173 0.799383
v 7.044371 -8.854173 1.259571
v 7.197292 -9.091250 0.799383
v 7.197292 -9.091250 1.259571
v 7.197292 -8.854173 1.259571
v 7.197292 -8.854173 0.799383
v 6.832050 -9.091250 1.341443
v 6.832050 -8.854173 1.341443
v 6.832050 -8.854173 0.717511
v 6.832050 -9.091250 0.717511
v 6.832050 -8.854173 0.799383
v 6.832050 -9.091250 0.799383
v 6.832050 -9.091250 1.259571
v 6.832050 -8.854173 1.259571
vn -0.0000 1.0000 -0.0000
vn -0.0000 -0.0000 -1.0000
vn -0.0000 -0.0000 1.0000
vn 1.0000 -0.0000 -0.0000
vn -0.0000 -1.0000 -0.0000
vn -1.0000 -0.0000 -0.0000
vt 0.375000 1.000000
vt 0.125000 0.750000
vt 0.625000 1.000000
vt 0.875000 0.750000
vt 0.125000 0.500000
vt 0.375000 0.250000
vt 0.875000 0.500000
vt 0.625000 0.250000
vt 0.375000 0.750000
vt 0.625000 0.750000
vt 0.375000 0.500000
vt 0.625000 0.500000
vt 0.125000 0.717195
vt 0.375000 0.032805
vt 0.125000 0.532805
vt 0.375000 0.217195
vt 0.625000 0.217195
vt 0.875000 0.532805
vt 0.875000 0.717195
vt 0.625000 0.032805
vt 0.375000 0.532805
vt 0.375000 0.717195
vt 0.625000 0.717195
vt 0.625000 0.532805
vt 0.375000 1.000000
vt 0.375000 0.000000
vt 0.125000 0.750000
vt 0.625000 1.000000
vt 0.625000 0.000000
vt 0.875000 0.750000
vt 0.875000 0.500000
vt 0.625000 0.250000
vt 0.125000 0.500000
vt 0.375000 0.250000
vt 0.625000 0.217195
vt 0.875000 0.532805
vt 0.125000 0.532805
vt 0.375000 0.217195
vt 0.125000 0.717195
vt 0.375000 0.032805
vt 0.875000 0.717195
vt 0.625000 0.032805
s 0
usemtl Material.001
f 68/146/15 64/141/15 71/152/15 76/158/15
f 63/140/16 64/142/16 68/146/16 67/145/16
f 65/143/17 66/144/17 62/137/17 61/135/17
f 61/135/17 62/137/17 78/162/17 77/159/17
f 67/145/18 68/146/18 76/158/18 73/155/18
f 75/157/15 72/153/15 62/138/15 66/144/15
f 69/147/19 74/156/19 65/143/19 61/136/19
f 74/156/18 75/157/18 66/144/18 65/143/18
f 63/139/19 67/145/19 73/155/19 70/149/19
f 72/153/15 75/157/15 76/158/15 71/152/15
f 74/156/19 69/147/19 70/149/19 73/155/19
f 75/157/18 74/156/18 73/155/18 76/158/18
f 71/151/20 70/150/20 69/148/20 72/154/20
f 63/139/19 70/149/19 82/171/19 80/167/19
f 82/172/20 81/169/20 79/166/20 80/168/20
f 77/160/20 78/163/20 84/176/20 83/174/20
f 69/147/19 61/136/19 77/161/19 83/173/19
f 70/150/17 71/151/17 81/169/17 82/172/17
f 71/152/15 64/141/15 79/165/15 81/170/15
f 64/142/16 63/140/16 80/168/16 79/166/16
f 62/138/15 72/153/15 84/175/15 78/164/15
f 72/154/16 69/148/16 83/174/16 84/176/16
o Cube.003
v 6.368973 -6.285476 6.693675
v 6.368973 -4.250909 6.693675
v 6.368973 -6.285476 -6.693675
v 6.368973 -4.250909 -6.693675
v 8.403540 -6.285476 6.693675
v 8.403540 -4.250909 6.693675
v 8.403540 -6.285476 -6.693675
v 8.403540 -4.250909 -6.693675
vn -1.0000 -0.0000 -0.0000
vn -0.0000 -0.0000 -1.0000
vn 1.0000 -0.0000 -0.0000
vn -0.0000 -0.0000 1.0000
vn -0.0000 -1.0000 -0.0000
vn -0.0000 1.0000 -0.0000
vt 1.000000 0.000000
vt 0.333333 0.000000
vt 0.333333 0.666667
vt 1.000000 0.333333
vt 0.333333 0.333333
vt 0.333333 1.000000
vt 0.666667 0.000000
vt 0.333333 0.000000
vt 0.333333 0.333333
vt 0.666667 0.333333
vt 0.333333 0.333333
vt 0.333333 0.666667
vt -1.353505 -1.020172
vt 0.666667 0.000000
vt 0.666667 0.666667
vt -1.353505 2.020172
vt 0.666667 0.333333
vt 0.000000 1.000000
vt 0.000000 0.000000
vt 1.686839 -1.020172
vt 0.666667 0.333333
vt 0.000000 0.333333
vt 1.686839 2.020172
vt 0.000000 0.666667
s 0
usemtl Material.002
f 85/177/21 86/180/21 88/186/21 87/183/21
f 87/184/22 88/187/22 92/198/22 91/195/22
f 91/196/23 92/199/23 90/192/23 89/189/23
f 89/190/24 90/193/24 86/181/24 85/178/24
f 87/185/25 91/197/25 89/191/25 85/179/25
f 92/200/26 88/188/26 86/182/26 90/194/26
o Cube.004
v 6.814464 1.299965 10.443214
v 6.814464 4.930670 10.443214
v 6.814464 1.299965 8.020754
v 6.814464 4.930670 8.020754
v 7.289626 1.299965 10.443214
v 7.289626 4.930670 10.443214
v 7.289626 1.299965 8.020754
v 7.289626 4.930670 8.020754
v 6.814464 1.299965 1.964603
v 6.814464 4.930670 1.964603
v 6.814464 1.299965 -0.457857
v 6.814464 4.930670 -0.457857
v 7.289626 1.299965 1.964603
v 7.289626 4.930670 1.964603
v 7.289626 1.299965 -0.457857
v 7.289626 4.930670 -0.457857
v 6.814464 1.299965 -6.514008
v 6.814464 4.930670 -6.514008
v 6.814464 1.299965 -8.936469
v 6.814464 4.930670 -8.936469
v 7.289626 1.299965 -6.514008
v 7.289626 4.930670 -6.514008
v 7.289626 1.299965 -8.936469
v 7.289626 4.930670 -8.936469
vn -1.0000 -0.0000 -0.0000
vn -0.0000 -0.0000 -1.0000
vn 1.0000 -0.0000 -0.0000
vn -0.0000 -0.0000 1.0000
vn -0.0000 -1.0000 -0.0000
vn -0.0000 1.0000 -0.0000
vt 0.375000 0.000000
vt 0.375000 1.000000
vt 0.125000 0.750000
vt 0.625000 0.000000
vt 0.625000 1.000000
vt 0.875000 0.750000
vt 0.375000 0.250000
vt 0.125000 0.500000
vt 0.625000 0.250000
vt 0.875000 0.500000
vt 0.375000 0.750000
vt 0.625000 0.750000
vt 0.375000 0.500000
vt 0.625000 0.500000
vt 0.375000 0.000000
vt 0.375000 1.000000
vt 0.125000 0.750000
vt 0.625000 0.000000
vt 0.625000 1.000000
vt 0.875000 0.750000
vt 0.375000 0.250000
vt 0.125000 0.500000
vt 0.625000 0.250000
vt 0.875000 0.500000
vt 0.375000 0.750000
vt 0.625000 0.750000
vt 0.375000 0.500000
vt 0.625000 0.500000
vt 0.375000 0.000000
vt 0.375000 1.000000
vt 0.125000 0.750000
vt 0.625000 0.000000
vt 0.625000 1.000000
vt 0.875000 0.750000
vt 0.375000 0.250000
vt 0.125000 0.500000
vt 0.625000 0.250000
vt 0.875000 0.500000
vt 0.375000 0.750000
vt 0.625000 0.750000
vt 0.375000 0.500000
vt 0.625000 0.500000
s 0
usemtl Material.004
f 93/201/27 94/204/27 96/209/27 95/207/27
f 95/207/28 96/209/28 100/214/28 99/213/28
f 99/213/29 100/214/29 98/212/29 97/211/29
f 97/211/30 98/212/30 94/205/30 93/202/30
f 95/208/31 99/213/31 97/211/31 93/203/31
f 100/214/32 96/210/32 94/206/32 98/212/32
f 101/215/27 102/218/27 104/223/27 103/221/27
f 103/221/28 104/223/28 108/228/28 107/227/28
f 107/227/29 108/228/29 106/226/29 105/225/29
f 105/225/30 106/226/30 102/219/30 101/216/30
f 103/222/31 107/227/31 105/225/31 101/217/31
f 108/228/32 104/224/32 102/220/32 106/226/32
f 109/229/27 110/232/27 112/237/27 111/235/27
f 111/235/28 112/237/28 116/242/28 115/241/28
f 115/241/29 116/242/29 114/240/29 113/239/29
f 113/239/30 114/240/30 110/233/30 109/230/30
f 111/236/31 115/241/31 113/239/31 109/231/31
f 116/242/32 112/238/32 110/234/32 114/240/32
