# Blender 3.5.1
# www.blender.org
mtllib house4.mtl
o Cube.001
v 6.810257 11.471934 -11.993979
v 6.810257 -11.471934 -11.993979
v 6.810257 11.471934 11.993979
v 6.810257 -11.471934 11.993979
v -6.810257 11.471934 -11.993979
v -6.810257 -11.471934 -11.993979
v -6.810257 11.471934 11.993979
v -6.810257 -11.471934 11.993979
vn 1.0000 -0.0000 -0.0000
vn -0.0000 -0.0000 1.0000
vn -1.0000 -0.0000 -0.0000
vn -0.0000 -0.0000 -1.0000
vn -0.0000 1.0000 -0.0000
vn -0.0000 -1.0000 -0.0000
vt 1.975231 -0.975231
vt 0.008257 -0.975231
vt 0.008256 0.991744
vt 1.975231 0.008256
vt 0.008256 0.008256
vt 0.008256 1.975231
vt 0.991744 -0.975231
vt 0.008256 -0.975231
vt 0.008257 0.008256
vt 0.991744 0.008256
vt 0.008256 0.008256
vt 0.008256 0.991744
vt -0.975231 0.008256
vt 0.991744 -0.975231
vt 0.991744 0.991744
vt -0.975231 0.991744
vt 0.991744 0.008256
vt -0.975231 1.975231
vt -0.975231 -0.975231
vt 0.008256 0.008257
vt 0.991744 0.008257
vt -0.975231 0.008256
vt 0.008256 0.991744
vt -0.975231 0.991744
s 0
usemtl Material.005
f 1/1/1 3/7/1 4/10/1 2/4/1
f 3/8/2 7/19/2 8/22/2 4/11/2
f 7/20/3 5/13/3 6/16/3 8/23/3
f 5/14/4 1/2/4 2/5/4 6/17/4
f 3/9/5 1/3/5 5/15/5 7/21/5
f 8/24/6 6/18/6 2/6/6 4/12/6
o Cube
v -6.872759 11.434020 11.926621
v -2.399655 13.434020 7.694964
v -6.872759 11.434020 -11.926621
v -5.601347 13.434020 -9.720281
v 6.872759 11.434020 11.926621
v 2.399655 13.434020 7.694964
v 6.872759 11.434020 -11.926621
v 5.601347 13.434020 -9.720281
v -6.872759 11.434020 0.000000
v -2.399655 13.434020 4.231657
v 6.872759 11.434020 0.000000
v 2.399655 13.434020 4.231657
v 5.601347 13.434020 -2.206341
v 6.872759 13.434020 11.926621
v -6.872759 13.434020 11.926621
v -5.601347 13.434020 -2.206341
v 2.399655 27.246677 4.231657
v 2.399655 27.246677 7.694964
v -2.399655 27.246677 7.694964
v -2.399655 27.246677 4.231657
v -5.601347 13.434020 -8.390522
v -5.601347 13.434020 -3.536099
v 6.872759 11.434020 -3.536099
v 6.872759 11.434020 -8.390522
v -6.872759 11.434020 -3.536099
v -6.872759 11.434020 -8.390522
v 5.601347 13.434020 -8.390522
v 5.601347 13.434020 -3.536099
v -6.872759 13.434020 -11.926621
v 6.872759 13.434020 -11.926621
v -6.872759 13.434020 0.000000
v 6.872759 13.434020 0.000000
v 6.872759 13.434020 -8.390522
v 6.872759 13.434020 -3.536099
v -6.872759 13.434020 -8.390522
v -6.872759 13.434020 -3.536099
v -5.601347 16.457209 -3.536099
v 5.601347 16.457209 -3.536099
v 5.601347 16.457209 -8.390522
v -5.601347 16.457209 -8.390522
v -5.601347 18.395275 -9.720281
v 5.601347 18.395275 -9.720281
v -5.601347 18.395275 -2.206341
v 5.601347 18.395275 -2.206341
vn 1.0000 -0.0000 -0.0000
vn -0.0000 -0.0000 -1.0000
vn -0.0000 -0.0000 1.0000
vn -0.0000 -1.0000 -0.0000
vn -1.0000 -0.0000 -0.0000
vn -0.0000 1.0000 -0.0000
vn -0.0000 0.5658 -0.8246
vn -0.0000 0.5658 0.8246
vt 0.375000 1.000000
vt 0.125000 0.750000
vt 0.375000 0.000000
vt 0.830649 0.705649
vt 0.125000 0.500000
vt 0.375000 0.250000
vt 0.851876 0.523124
vt 0.375000 0.750000
vt 0.669351 0.705649
vt 0.375000 0.500000
vt 0.648124 0.523124
vt 0.125000 0.625000
vt 0.375000 0.125000
vt 0.830649 0.669351
vt 0.375000 0.625000
vt 0.669351 0.669351
vt 0.648124 0.601876
vt 0.625000 0.750000
vt 0.625000 1.000000
vt 0.625000 0.000000
vt 0.875000 0.750000
vt 0.851876 0.601876
vt 0.669351 0.669351
vt 0.669351 0.705649
vt 0.830649 0.705649
vt 0.830649 0.669351
vt 0.851876 0.537061
vt 0.851876 0.587939
vt 0.375000 0.587939
vt 0.375000 0.537061
vt 0.125000 0.587939
vt 0.375000 0.162061
vt 0.125000 0.537061
vt 0.375000 0.212939
vt 0.648124 0.537061
vt 0.648124 0.587939
vt 0.625000 0.250000
vt 0.875000 0.500000
vt 0.625000 0.500000
vt 0.625000 0.125000
vt 0.875000 0.625000
vt 0.625000 0.625000
vt 0.625000 0.537061
vt 0.625000 0.587939
vt 0.625000 0.212939
vt 0.875000 0.537061
vt 0.625000 0.162061
vt 0.875000 0.587939
vt 0.851876 0.587939
vt 0.648124 0.587939
vt 0.648124 0.537061
vt 0.851876 0.537061
vt 0.851876 0.523124
vt 0.648124 0.523124
vt 0.851876 0.601876
vt 0.648124 0.601876
s 0
usemtl Material.006
f 36/60/7 35/59/7 47/75/7 46/74/7
f 11/30/8 37/61/8 38/63/8 15/34/8
f 19/39/7 40/66/7 22/42/7 13/32/7
f 13/32/9 22/42/9 23/43/9 9/25/9
f 17/36/10 19/39/10 13/32/10 9/26/10
f 18/38/11 10/28/11 27/49/11 28/50/11
f 11/29/10 15/34/10 32/54/10 34/57/10
f 31/53/7 42/68/7 40/66/7 19/39/7
f 9/27/11 23/44/11 39/64/11 17/37/11
f 20/40/12 14/33/12 22/42/12 40/66/12
f 14/33/12 10/28/12 23/45/12 22/42/12
f 10/28/12 18/38/12 39/65/12 23/45/12
f 18/38/12 20/40/12 40/66/12 39/65/12
f 25/47/12 28/50/12 27/49/12 26/48/12
f 14/33/7 20/40/7 25/47/7 26/48/7
f 20/40/8 18/38/8 28/50/8 25/47/8
f 10/28/9 14/33/9 26/48/9 27/49/9
f 33/55/10 31/53/10 19/39/10 17/36/10
f 15/34/7 38/63/7 41/67/7 32/54/7
f 17/37/11 39/64/11 44/71/11 33/56/11
f 34/58/11 43/69/11 37/61/11 11/30/11
f 42/68/7 31/53/7 32/54/7 41/67/7
f 31/53/10 33/55/10 34/57/10 32/54/10
f 35/59/7 16/35/7 50/78/7 47/75/7
f 43/69/11 34/58/11 33/56/11 44/71/11
f 30/52/11 24/46/11 51/79/11 45/73/11
f 12/31/12 16/35/12 38/63/12 37/62/12
f 21/41/12 24/46/12 39/65/12 40/66/12
f 35/59/12 36/60/12 42/68/12 41/67/12
f 30/52/12 29/51/12 43/70/12 44/72/12
f 16/35/12 35/59/12 41/67/12 38/63/12
f 29/51/12 12/31/12 37/62/12 43/70/12
f 24/46/12 30/52/12 44/72/12 39/65/12
f 36/60/12 21/41/12 40/66/12 42/68/12
f 46/74/13 45/73/13 51/79/13 52/80/13
f 45/73/12 46/74/12 47/75/12 48/76/12
f 50/78/14 49/77/14 48/76/14 47/75/14
f 16/35/8 12/31/8 49/77/8 50/78/8
f 21/41/7 36/60/7 46/74/7 52/80/7
f 12/31/11 29/51/11 48/76/11 49/77/11
f 29/51/11 30/52/11 45/73/11 48/76/11
f 24/46/9 21/41/9 52/80/9 51/79/9
o Cube.002
v 4.906561 -11.450475 4.678576
v 4.906561 -4.823655 4.678576
v 4.906561 -11.450475 -4.678576
v 4.906561 -4.823655 -4.678576
v 7.031421 -11.450475 4.678576
v 7.031421 -4.823655 4.678576
v 7.031421 -11.450475 -4.678576
v 7.031421 -4.823655 -4.678576
v 4.906561 -11.450475 0.000000
v 4.906561 -4.823655 0.000000
v 7.031421 -11.450475 -0.185480
v 7.031421 -11.450475 0.185480
v 6.989302 -11.450475 0.000000
v 7.031421 -4.823655 0.185480
v 7.031421 -4.823655 -0.185480
v 6.989302 -4.823655 0.000000
v 7.208631 -11.450475 0.000000
v 7.250751 -11.450475 -0.185480
v 7.250751 -11.450475 0.185480
v 7.208631 -4.823655 0.000000
v 7.250751 -4.823655 0.185480
v 7.250751 -4.823655 -0.185480
vn -1.0000 -0.0000 -0.0000
vn -0.0000 -0.0000 -1.0000
vn -0.0000 1.0000 -0.0000
vn -0.0000 -0.0000 1.0000
vn -0.0000 -1.0000 -0.0000
vn 1.0000 -0.0000 -0.0000
vt 0.375000 1.000000
vt 0.125000 0.750000
vt 0.375000 0.000000
vt 0.875000 0.750000
vt 0.625000 1.000000
vt 0.625000 0.000000
vt 0.375000 0.250000
vt 0.125000 0.500000
vt 0.625000 0.250000
vt 0.875000 0.500000
vt 0.375000 0.750000
vt 0.625000 0.750000
vt 0.375000 0.500000
vt 0.625000 0.500000
vt 0.125000 0.625000
vt 0.375000 0.125000
vt 0.875000 0.625000
vt 0.625000 0.125000
vt 0.375000 0.620044
vt 0.375000 0.629956
vt 0.370044 0.625000
vt 0.625000 0.629956
vt 0.625000 0.620044
vt 0.629956 0.625000
vt 0.370044 0.625000
vt 0.375000 0.620044
vt 0.375000 0.629956
vt 0.629956 0.625000
vt 0.625000 0.629956
vt 0.625000 0.620044
s 0
usemtl Material.008
f 61/96/15 62/98/15 56/89/15 55/87/15
f 55/87/16 56/89/16 60/94/16 59/93/16
f 66/102/17 68/104/17 62/97/17 54/84/17 58/92/17
f 57/91/18 58/92/18 54/85/18 53/81/18
f 55/88/19 59/93/19 63/99/19 65/101/19 61/95/19
f 60/94/17 56/90/17 62/97/17 68/104/17 67/103/17
f 64/100/20 66/102/20 58/92/20 57/91/20
f 61/95/19 65/101/19 64/100/19 57/91/19 53/82/19
f 53/83/15 54/86/15 62/98/15 61/96/15
f 65/101/19 63/99/19 70/106/19 69/105/19
f 64/100/19 65/101/19 69/105/19 71/107/19
f 66/102/18 64/100/18 71/107/18 73/109/18
f 59/93/20 60/94/20 67/103/20 63/99/20
f 70/106/19 71/107/19 69/105/19
f 73/109/17 74/110/17 72/108/17
f 73/109/20 71/107/20 70/106/20 74/110/20
f 63/99/16 67/103/16 74/110/16 70/106/16
f 67/103/17 68/104/17 72/108/17 74/110/17
f 68/104/17 66/102/17 73/109/17 72/108/17
o Cube.003
v 6.545397 -8.511806 1.745229
v 6.545397 -8.136179 1.745229
v 6.545397 -8.511806 0.463692
v 6.545397 -8.136179 0.463692
v 7.275029 -8.511806 1.745229
v 7.275029 -8.136179 1.745229
v 7.275029 -8.511806 0.463692
v 7.275029 -8.136179 0.463692
v 6.545397 -8.511806 -1.745229
v 6.545397 -8.136179 -1.745229
v 6.545397 -8.511806 -0.463692
v 6.545397 -8.136179 -0.463692
v 7.275029 -8.511806 -1.745229
v 7.275029 -8.136179 -1.745229
v 7.275029 -8.511806 -0.463692
v 7.275029 -8.136179 -0.463692
vn -1.0000 -0.0000 -0.0000
vn -0.0000 -0.0000 -1.0000
vn 1.0000 -0.0000 -0.0000
vn -0.0000 -0.0000 1.0000
vn -0.0000 -1.0000 -0.0000
vn -0.0000 1.0000 -0.0000
vt 0.375000 0.000000
vt 0.375000 1.000000
vt 0.125000 0.750000
vt 0.625000 0.000000
vt 0.625000 1.000000
vt 0.875000 0.750000
vt 0.375000 0.250000
vt 0.125000 0.500000
vt 0.625000 0.250000
vt 0.875000 0.500000
vt 0.375000 0.750000
vt 0.625000 0.750000
vt 0.375000 0.500000
vt 0.625000 0.500000
vt 0.375000 0.000000
vt 0.375000 1.000000
vt 0.125000 0.750000
vt 0.625000 0.000000
vt 0.625000 1.000000
vt 0.875000 0.750000
vt 0.375000 0.250000
vt 0.125000 0.500000
vt 0.625000 0.250000
vt 0.875000 0.500000
vt 0.375000 0.750000
vt 0.625000 0.750000
vt 0.375000 0.500000
vt 0.625000 0.500000
s 0
usemtl Material.007
f 75/111/21 76/114/21 78/119/21 77/117/21
f 77/117/22 78/119/22 82/124/22 81/123/22
f 81/123/23 82/124/23 80/122/23 79/121/23
f 79/121/24 80/122/24 76/115/24 75/112/24
f 77/118/25 81/123/25 79/121/25 75/113/25
f 82/124/26 78/120/26 76/116/26 80/122/26
f 83/125/21 85/131/21 86/133/21 84/128/21
f 85/131/24 89/137/24 90/138/24 86/133/24
f 89/137/23 87/135/23 88/136/23 90/138/23
f 87/135/22 83/126/22 84/129/22 88/136/22
f 85/132/25 83/127/25 87/135/25 89/137/25
f 90/138/26 88/136/26 84/130/26 86/134/26
